<?xml version="1.0" encoding="UTF-8"?>
<svg width="230px" height="161px" viewBox="0 0 230 161" version="1.1" xmlns="http://www.w3.org/2000/svg" xmlns:xlink="http://www.w3.org/1999/xlink">
    <!-- Generator: Sketch 45.2 (43514) - http://www.bohemiancoding.com/sketch -->
    <title>logo</title>
    <desc>Created with Sketch.</desc>
    <defs></defs>
    <g id="Symbols" stroke="none" stroke-width="1" fill="none" fill-rule="evenodd">
        <g id="logo">
            <g id="Group">
                <path d="M51.7125887,49.4716847 C54.3128197,49.4716847 55.7663752,49.4204256 58.9407689,49.4452284 C68.1059231,19.5545354 94.8226365,0 128.686685,0 C162.550734,0 191.055931,22.9343316 199.622175,54.1445341 C217.521861,62.1690699 230,80.1593747 230,101.079718 C230,129.047367 207.713249,151.773355 179.965352,152.446338 C175.918165,157.645007 169.623824,161 162.530935,161 C155.457845,161 149.173404,157.659888 145.122917,152.482715 L83.7914536,152.482715 C79.7409668,157.659888 73.4565253,161 66.3834351,161 C59.2822967,161 52.9780564,157.636739 48.9275697,152.423188 C21.6977396,151.186355 0,128.675325 0,101.079718 C0,72.6920754 22.7866689,49.4716847 51.7125887,49.4716847 Z" id="Fill-1" fill="#FFFFFF"></path>
                <path d="M122.457338,46.7881292 C122.457338,37.4301563 114.848618,29.8439024 105.466624,29.8439024 C96.082977,29.8439024 88.47591,37.4301563 88.47591,46.7881292 C88.47591,53.3113515 92.176154,58.9643714 97.593483,61.7958257 C94.9657975,62.7682111 92.7727543,64.6190395 91.528322,67.0928537 C90.9267638,66.9659492 90.3037214,66.8950804 89.6674579,66.8950804 L66.5553935,66.8950804 C61.189296,66.8950804 56.8412201,71.5888999 56.8412201,77.3803611 C56.8412201,83.1701742 61.189296,87.8639936 66.5553935,87.8639936 L85.7209717,87.8639936 L83.0569282,97.7757317 L71.3662065,97.7757317 C66.7355304,97.7757317 62.8650653,101.276319 61.8933174,105.955305 L54.7109769,125.637044 C52.8749022,130.663782 55.8099774,136.34482 61.2669697,138.325849 C66.723962,140.306878 72.6354282,137.838008 74.4698501,132.807974 L79.6012738,118.744645 L94.4782709,118.744645 C97.000188,118.744645 99.2857786,117.699743 101.011127,116.002189 C102.625749,114.647442 103.842086,112.849353 104.41555,110.718345 L113.947934,75.2411133 C115.167576,70.7005682 113.128228,66.0100449 109.208184,63.3071433 C116.788809,61.6046449 122.457338,54.8622238 122.457338,46.7881292" id="Fill-3" fill="#00A3DD"></path>
                <path d="M179.761092,46.7881292 C179.761092,37.4301563 172.15217,29.8439024 162.769927,29.8439024 C153.386031,29.8439024 145.778762,37.4301563 145.778762,46.7881292 C145.778762,53.3113515 149.480757,58.9643714 154.896577,61.7974738 C151.614362,63.0121315 149.006438,65.5963691 148.077634,69.0475131 L140.359636,97.7757317 L128.670256,97.7757317 C124.037804,97.7757317 120.168889,101.276319 119.197116,105.955305 L112.014584,125.637044 C110.178461,130.663782 113.115267,136.34482 118.570751,138.325849 C124.027888,140.306878 129.939512,137.838008 131.773982,132.807974 L136.907195,118.744645 L151.782935,118.744645 C154.306571,118.744645 156.597181,117.698095 158.320922,115.995596 C159.935587,114.640849 161.148651,112.847705 161.718825,110.718345 L171.253114,75.2411133 C172.47279,70.7005682 170.431734,66.0100449 166.514891,63.3054952 C174.094065,61.6046449 179.761092,54.8622238 179.761092,46.7881292" id="Fill-5" fill="#A0A0A0"></path>
            </g>
        </g>
    </g>
</svg>